<svg xmlns="http://www.w3.org/2000/svg" width="24" height="24" viewBox="0 0 24 24">
    <path fill="#888" fill-rule="nonzero" d="M12.002 6.42A5.57 5.57 0 0 0 6.423 12a5.57 5.57 0 0 0 5.58 5.58A5.57 5.57 0 0 0 17.581 12a5.57 5.57 0 0 0-5.58-5.58zm0 9.207A3.634 3.634 0 0 1 8.375 12c0-2 1.627-3.627 3.627-3.627 2.001 0 3.628 1.626 3.628 3.627 0 2-1.632 3.627-3.628 3.627zm7.11-9.435c0 .724-.583 1.302-1.302 1.302a1.301 1.301 0 1 1 1.301-1.301zm3.695 1.321c-.083-1.743-.481-3.287-1.758-4.56-1.272-1.272-2.816-1.67-4.56-1.757-1.796-.102-7.182-.102-8.978 0-1.739.082-3.283.48-4.56 1.753-1.277 1.272-1.67 2.816-1.758 4.56-.102 1.796-.102 7.181 0 8.978.083 1.743.481 3.287 1.758 4.56 1.277 1.272 2.816 1.67 4.56 1.757 1.796.102 7.182.102 8.978 0 1.744-.082 3.288-.48 4.56-1.757 1.272-1.273 1.67-2.817 1.758-4.56.102-1.797.102-7.177 0-8.974zm-2.321 10.902a3.672 3.672 0 0 1-2.069 2.068c-1.432.568-4.832.437-6.415.437-1.583 0-4.987.127-6.414-.437a3.672 3.672 0 0 1-2.069-2.068c-.568-1.433-.437-4.832-.437-6.415 0-1.583-.126-4.987.437-6.415a3.672 3.672 0 0 1 2.069-2.068c1.432-.568 4.831-.437 6.414-.437 1.583 0 4.987-.127 6.415.437a3.672 3.672 0 0 1 2.069 2.068c.568 1.433.437 4.832.437 6.415 0 1.583.13 4.987-.437 6.415z"/>
</svg>
