<svg xmlns="http://www.w3.org/2000/svg" width="24" height="24" viewBox="0 0 24 24">
    <path fill="#888" fill-rule="nonzero" d="M20.65 7.564c.014.194.014.387.014.58 0 5.901-4.49 12.7-12.699 12.7-2.528 0-4.877-.733-6.853-2.004.359.041.704.055 1.077.055a8.938 8.938 0 0 0 5.541-1.907 4.471 4.471 0 0 1-4.173-3.095c.277.041.553.07.843.07.4 0 .802-.056 1.175-.153a4.464 4.464 0 0 1-3.58-4.38v-.055a4.495 4.495 0 0 0 2.018.566 4.46 4.46 0 0 1-1.99-3.717c0-.829.222-1.589.608-2.252a12.686 12.686 0 0 0 9.203 4.67 5.038 5.038 0 0 1-.11-1.022c0-2.46 1.99-4.463 4.463-4.463 1.285 0 2.446.538 3.26 1.409a8.787 8.787 0 0 0 2.833-1.078 4.451 4.451 0 0 1-1.962 2.46 8.947 8.947 0 0 0 2.57-.691 9.594 9.594 0 0 1-2.238 2.307z"/>
</svg>
